/* XPM */
static const char *icono_xpm[] = {
"32 32 162 2",
"  	c None",
". 	c #F8CB20",
"+ 	c #F3C40F",
"@ 	c #F2C30E",
"# 	c #F3C30E",
"$ 	c #FFD534",
"% 	c #F9CD23",
"& 	c #F2C30F",
"* 	c #FFD636",
"= 	c #F0C315",
"- 	c #DCBE4A",
"; 	c #DCBE4B",
"> 	c #EFC317",
", 	c #F3C40E",
"' 	c #F8CC22",
") 	c #E4C035",
"! 	c #586069",
"~ 	c #343F4B",
"{ 	c #394654",
"] 	c #3E4C5C",
"^ 	c #57636F",
"/ 	c #E1BF3D",
"( 	c #FED534",
"_ 	c #F5C715",
": 	c #48515B",
"< 	c #212D3B",
"[ 	c #243140",
"} 	c #2D3E50",
"| 	c #485664",
"1 	c #E6C028",
"2 	c #EAC32A",
"3 	c #F5CA24",
"4 	c #F8CC21",
"5 	c #E8C12B",
"6 	c #898A85",
"7 	c #757876",
"8 	c #74797F",
"9 	c #797E7E",
"0 	c #888B88",
"a 	c #E5C032",
"b 	c #D5AF1F",
"c 	c #E4B916",
"d 	c #D6D5D1",
"e 	c #F2C414",
"f 	c #DBCB8F",
"g 	c #DACB90",
"h 	c #D3D3D2",
"i 	c #DACB91",
"j 	c #EBC636",
"k 	c #E3B916",
"l 	c #E7E6E4",
"m 	c #A1A6AA",
"n 	c #787F87",
"o 	c #9CA0A5",
"p 	c #E6E6E6",
"q 	c #EBEBEC",
"r 	c #EFEFEF",
"s 	c #EEEEEE",
"t 	c #EFCE50",
"u 	c #EBEAE8",
"v 	c #4B5661",
"w 	c #2B3C4E",
"x 	c #34495E",
"y 	c #374C62",
"z 	c #44505D",
"A 	c #EBEBEB",
"B 	c #F8F8F8",
"C 	c #FFFFFF",
"D 	c #FDFDFD",
"E 	c #F0CF50",
"F 	c #4C5662",
"G 	c #32465A",
"H 	c #394F66",
"I 	c #45515F",
"J 	c #D3D6D8",
"K 	c #AAB0B7",
"L 	c #C1C5CA",
"M 	c #4B5662",
"N 	c #2E4053",
"O 	c #44515F",
"P 	c #E7E7E7",
"Q 	c #E5E5E5",
"R 	c #E8C849",
"S 	c #858B92",
"T 	c #535C66",
"U 	c #545E69",
"V 	c #767C84",
"W 	c #E9E9E9",
"X 	c #E4E4E4",
"Y 	c #DDDDDD",
"Z 	c #DBDBDB",
"` 	c #E8C748",
" .	c #F2C40F",
"..	c #E9E7E2",
"+.	c #E1E0DD",
"@.	c #D1D1CE",
"#.	c #E2E1DE",
"$.	c #E3E2DF",
"%.	c #E8C84A",
"&.	c #EECA40",
"*.	c #DEDEDE",
"=.	c #D9D9D9",
"-.	c #D7D7D7",
";.	c #D8D8D8",
">.	c #DCDCDC",
",.	c #E6D388",
"'.	c #E4D599",
").	c #D0D0D0",
"!.	c #CFCFCF",
"~.	c #D6D6D6",
"{.	c #DFDCD1",
"].	c #F2C416",
"^.	c #F0C626",
"/.	c #DEDDDA",
"(.	c #DADADA",
"_.	c #EBCD59",
":.	c #E7D17C",
"<.	c #D5D5D5",
"[.	c #E3D7AA",
"}.	c #DFDCCE",
"|.	c #DEDDDD",
"1.	c #F0C72C",
"2.	c #EACE60",
"3.	c #CCCCCC",
"4.	c #CECECE",
"5.	c #E7D17B",
"6.	c #E1D9B9",
"7.	c #CDCDCD",
"8.	c #B9B9B9",
"9.	c #BEBEBE",
"0.	c #E0DBC9",
"a.	c #F2C412",
"b.	c #E6BB18",
"c.	c #827B63",
"d.	c #7B7B78",
"e.	c #7B7A78",
"f.	c #797876",
"g.	c #787876",
"h.	c #757573",
"i.	c #777674",
"j.	c #767573",
"k.	c #787775",
"l.	c #7E7861",
"m.	c #EABE14",
"n.	c #DBB420",
"o.	c #707070",
"p.	c #6F6F6F",
"q.	c #6C6C6C",
"r.	c #E2B91A",
"s.	c #6D6D6D",
"t.	c #6E6E6E",
"u.	c #DDB61F",
"v.	c #E4BA18",
"w.	c #F1C210",
"x.	c #887F5D",
"y.	c #887E58",
"z.	c #EDC013",
"A.	c #C7A82E",
"B.	c #C2A532",
"C.	c #C2A432",
"D.	c #C1A331",
"E.	c #C6A62D",
"            . + + + + + + + + + + + + + + + + + + + + @ #       ",
"          $ % + + + + + + + + + + + + + + + + + + + + + + &     ",
"        $ * % + + + + + + + + + + + + + + + + + + + + + + + &   ",
"      $ * * % = - ; ; ; ; ; ; > + + + + + + + + + + + + + + + , ",
"    $ * * * ' ) ! ~ ~ { ] ] ^ / + + + + + + + + + + + + + + + @ ",
"  $ * * * ( _ ) : < < [ } } | / + + + + + + + + + + + + + + + + ",
"1 2 2 3 4 _ + 5 6 7 7 8 9 9 0 a + + + + + + + + + + + + + + + + ",
"b b c + + + + + + + + d e + + + + + + + + + + + + + + + + + + + ",
"b c + + + + + f g g g h i g g g g g g g g g g g g j + + + + + + ",
"k + + + + + + l m n n n n n n n n o p q r r r r s t + + + + + + ",
"+ + + + + + + u v w w x y y y y y z A B C C C C D E + + + + + + ",
"+ + + + + + + u F } } G H H H H H I A J K K K K L E + + + + + + ",
"+ + + + + + + u M } } N H H H H H O A P p p p p Q R + + + + + + ",
"+ + + + + + + u S T T T U U U U U V W X Y Y Y Y Z ` + + + + + + ",
"+ + + + + +  ...+.@.@.@.@.@.@.@.@.@.#.$.@.@.@.@.@.%.+ + + + + + ",
"+ + + + + + &.*.=.-.-.-.-.-.-.-.-.Y ;.-.-.-.-.-.>.,.+ + + + + + ",
"+ + + + + + '.Y ).!.!.!.!.!.!.!.!.>.).!.!.!.!.!.~.{.].+ + + + + ",
"+ + + + + ^./.(.!.!.!.!.!.!.!.!.!.>.).!.!.!.!.!.).Y _.+ + + + + ",
"+ + + + + :.*.<.!.!.!.!.!.!.!.!.!.>.).!.!.!.!.!.!.(.[.+ + + + + ",
"+ + + + ].}.Y ).!.!.!.!.!.!.!.!.!.>.).!.!.!.!.!.!.<.|.1.+ + + + ",
"+ + + + 2.*.;.3.3.3.3.3.3.3.3.3.3.>.4.3.3.3.3.3.3.4.Y 5.+ + + + ",
"+ + +  .6.*.7.8.8.8.8.8.8.8.8.8.8.=.9.8.8.8.8.8.8.8.(.0.a.+ + + ",
"+ + b.c.d.d.e.f.f.g.h.h.h.h.h.h.h.i.j.h.h.h.h.h.h.h.i.k.l.m.+ + ",
"+ + n.o.o.o.o.o.o.p.q.q.q.q.q.q.q.q.q.q.q.q.q.q.q.q.q.q.q.r.+ + ",
"+ + n.o.o.o.o.o.o.o.s.q.q.q.q.q.q.q.q.q.q.q.q.q.q.q.q.q.q.r.+ + ",
"+ + n.o.o.o.o.o.o.o.t.q.q.q.q.q.q.q.q.q.q.q.q.q.q.q.q.q.q.r.+ + ",
"+ + u.o.o.o.o.o.o.o.p.q.q.q.q.q.q.q.q.q.q.q.q.q.q.q.q.q.q.v.+ + ",
"@ + w.x.o.o.o.o.o.o.o.s.q.q.q.q.q.q.q.q.q.q.q.q.q.q.q.q.y.& + @ ",
"# + + z.A.B.B.B.B.B.B.C.D.D.D.D.D.D.D.D.D.D.D.D.D.D.D.E.z.+ + , ",
"  & + + + + + + + + + + + + + + + + + + + + + + + + + + + + &   ",
"    & + + + + + + + + + + + + + + + + + + + + + + + + + + &     ",
"      , @ + + + + + + + + + + + + + + + + + + + + + + @ ,       "};
